<svg height="465pt" viewBox="0 0 465 465.4206" width="465pt" xmlns="http://www.w3.org/2000/svg"><path d="m216.53125 177.421875-18.480469 32h163.121094l18.476563-32 28.5625-49.441406c4.382812-7.648438 1.773437-17.398438-5.839844-21.839844l-108.5625-62.640625-58.796875 101.921875zm0 0" fill="#d1d3d4"/><path d="m161.089844 177.421875-18.480469 32h55.441406l36.960938-64 58.796875-101.921875-41.519532-24-72.71875 125.921875zm0 0" fill="#58595b"/><path d="m142.609375 209.421875 36.960937-64 72.71875-125.921875-30.078124-17.359375c-7.644532-4.410156-17.417969-1.796875-21.839844 5.839844l-97.839844 169.441406-18.480469 32zm0 0" fill="#d1d3d4"/><path d="m448.210938 281.421875v-72c0-17.675781-14.328126-32-32-32h-36.5625l-18.476563 32h-277.121094l18.480469-32h-70.320312c-17.671876 0-32 14.324219-32 32v224c0 17.671875 14.328124 32 32 32h384c17.671874 0 32-14.328125 32-32zm0 0" fill="#a97c50"/><path d="m448.210938 361.421875v16h-96c-17.671876 0-32-14.328125-32-32v-16c0 17.671875 14.328124 32 32 32zm0 0" fill="#8b5e3c"/><path d="m.210938 209.421875v224c0 17.671875 14.328124 32 32 32h216c-137.082032 0-248-114.496094-248-256zm0 0" fill="#8b5e3c"/><path d="m464.210938 281.421875v80h-112c-17.671876 0-32-14.328125-32-32v-16c0-17.675781 14.328124-32 32-32zm0 0" fill="#754c29"/><path d="m376.210938 321.421875c0 8.835937-7.164063 16-16 16-8.835938 0-16-7.164063-16-16s7.164062-16 16-16c8.835937 0 16 7.164063 16 16zm0 0" fill="#c49a6c"/><path d="m40.210938 201.421875h368v16h-368zm0 0" fill="#754c29"/></svg>